<?xml version="1.0" encoding="UTF-8" standalone="no"?>
<svg
   id="Vrstva_1"
   viewBox="0 0 699.33 198.34"
   version="1.1"
   sodipodi:docname="JGDIX_logo_color_RGB2.svg"
   inkscape:version="1.2.2 (732a01da63, 2022-12-09)"
   xmlns:inkscape="http://www.inkscape.org/namespaces/inkscape"
   xmlns:sodipodi="http://sodipodi.sourceforge.net/DTD/sodipodi-0.dtd"
   xmlns="http://www.w3.org/2000/svg"
   xmlns:svg="http://www.w3.org/2000/svg">
  <sodipodi:namedview
     id="namedview21"
     pagecolor="#ffffff"
     bordercolor="#000000"
     borderopacity="0.25"
     inkscape:showpageshadow="2"
     inkscape:pageopacity="0.0"
     inkscape:pagecheckerboard="0"
     inkscape:deskcolor="#d1d1d1"
     showgrid="false"
     inkscape:zoom="2.1491999"
     inkscape:cx="349.43236"
     inkscape:cy="99.106649"
     inkscape:window-width="2560"
     inkscape:window-height="1369"
     inkscape:window-x="1912"
     inkscape:window-y="-8"
     inkscape:window-maximized="1"
     inkscape:current-layer="Vrstva_1" />
  <defs
     id="defs4">
    <style
       id="style2">.cls-1{fill:#ecc63f;}.cls-2{fill:#1d1d1b;}</style>
  </defs>
  <path
     class="cls-1"
     d="M 99.17,0 C 44.4,0 0,44.4 0,99.17 c 0,54.77 44.4,99.17 99.17,99.17 54.77,0 99.2,-44.4 99.2,-99.17 C 198.37,44.4 153.97,0 99.17,0 Z m 0,118.86 c -10.86,0 -19.68,-8.8 -19.68,-19.68 0,-10.88 8.82,-19.68 19.68,-19.68 10.86,0 19.68,8.79 19.68,19.68 0,10.89 -8.8,19.68 -19.68,19.68 z m 38.06,-18.71 c 0,-20.99 -17.06,-38.04 -38.04,-38.04 -20.98,0 -38.06,17.05 -38.06,38.04 h -3.82 c 0,-23.1 18.76,-41.88 41.87,-41.88 23.11,0 41.86,18.78 41.86,41.88 h -3.82 z m 12.18,0 c 0,-27.7 -22.53,-50.22 -50.23,-50.22 -27.7,0 -50.24,22.52 -50.24,50.22 h -3.82 c 0,-29.81 24.23,-54.07 54.06,-54.07 29.83,0 54.05,24.26 54.05,54.07 z m 12.51,0 c 0,-34.6 -28.13,-62.73 -62.74,-62.73 -34.61,0 -62.73,28.13 -62.73,62.73 h -3.87 c 0,-36.72 29.89,-66.58 66.6,-66.58 36.71,0 66.58,29.86 66.58,66.58 z m 12.18,0 c 0,-41.32 -33.6,-74.92 -74.92,-74.92 -41.32,0 -74.89,33.6 -74.89,74.92 h -3.87 c 0,-43.43 35.36,-78.76 78.78,-78.76 43.42,0 78.76,35.34 78.76,78.76 h -3.84 z M 99.2,13.38 c -47.84,0 -86.8,38.93 -86.8,86.77 H 8.58 C 8.59,50.2 49.25,9.53 99.2,9.53 c 49.95,0 90.59,40.66 90.59,90.61 h -3.82 c 0,-47.84 -38.93,-86.77 -86.78,-86.77 z"
     id="path6" />
  <g
     id="g18"
     style="fill:#ffffff">
    <path
       class="cls-2"
       d="M284.21,171.99c-4.63,0-8.28-.67-10.94-1.99v-10.72c3.5,.99,7.15,1.48,10.94,1.48,4.88,0,8.58-1.48,11.12-4.44,2.54-2.95,3.81-7.22,3.81-12.79V35.45h12.57v107.04c0,9.37-2.36,16.62-7.1,21.77-4.73,5.15-11.53,7.73-20.4,7.73Z"
       id="path8"
       style="fill:#ffffff" />
    <path
       class="cls-2"
       d="M384.91,86.9h36.74v52.56c-5.72,1.83-11.54,3.2-17.46,4.14-5.91,.93-12.77,1.4-20.54,1.4-16.36,0-29.11-4.86-38.23-14.6-9.11-9.73-13.67-23.37-13.67-40.91,0-11.24,2.25-21.08,6.76-29.53,4.52-8.45,11.01-14.91,19.49-19.37,8.47-4.46,18.4-6.7,29.79-6.7s22.28,2.12,32.23,6.36l-4.87,11.09c-9.77-4.14-19.15-6.21-28.17-6.21-13.17,0-23.44,3.92-30.83,11.75-7.4,7.84-11.09,18.71-11.09,32.61,0,14.59,3.56,25.65,10.68,33.19,7.12,7.54,17.58,11.31,31.38,11.31,7.49,0,14.82-.86,21.95-2.59v-33.26h-24.16v-11.24Z"
       id="path10"
       style="fill:#ffffff" />
    <path
       class="cls-2"
       d="M567.15,88.46c0,17.84-4.85,31.48-14.53,40.91-9.69,9.44-23.62,14.16-41.81,14.16h-29.94V35.45h33.13c16.8,0,29.86,4.65,39.18,13.97,9.31,9.32,13.98,22.33,13.98,39.04Zm-13.31,.44c0-14.09-3.54-24.72-10.62-31.86-7.08-7.15-17.57-10.73-31.53-10.73h-18.25v86.35h15.29c14.99,0,26.26-3.68,33.79-11.05,7.54-7.37,11.32-18.27,11.32-32.71Z"
       id="path12"
       style="fill:#ffffff" />
    <path
       class="cls-2"
       d="M588.21,143.53V35.45h12.57v108.08h-12.57Z"
       id="path14"
       style="fill:#ffffff" />
    <path
       class="cls-2"
       d="M699.33,143.53h-14.27l-29.06-47.54-29.57,47.54h-13.31l35.94-56.49-33.5-51.59h13.9l26.84,42.79,27.06-42.79h13.38l-33.49,51.15,36.09,56.93Z"
       id="path16"
       style="fill:#ffffff" />
  </g>
</svg>
